<mxfile host="app.diagrams.net" modified="2024-04-21T23:38:46.108Z" agent="Mozilla/5.0 (Windows NT 10.0; Win64; x64) AppleWebKit/537.36 (KHTML, like Gecko) Chrome/123.0.0.0 Safari/537.36" etag="_w_Gq8jqTB2_t_Fqq_K-" version="24.2.7" type="github">
  <diagram name="Page-1" id="6xafr4eaoE5Th5c3bCpr">
    <mxGraphModel dx="1379" dy="612" grid="1" gridSize="10" guides="1" tooltips="1" connect="1" arrows="1" fold="1" page="1" pageScale="1" pageWidth="827" pageHeight="1169" math="0" shadow="0">
      <root>
        <mxCell id="0" />
        <mxCell id="1" parent="0" />
        <mxCell id="5_tIOBeRYEWyKFKPHUok-18" style="edgeStyle=orthogonalEdgeStyle;rounded=0;orthogonalLoop=1;jettySize=auto;html=1;exitX=0.5;exitY=1;exitDx=0;exitDy=0;entryX=0.5;entryY=0;entryDx=0;entryDy=0;" edge="1" parent="1" source="5_tIOBeRYEWyKFKPHUok-2" target="5_tIOBeRYEWyKFKPHUok-3">
          <mxGeometry relative="1" as="geometry" />
        </mxCell>
        <mxCell id="5_tIOBeRYEWyKFKPHUok-2" value="Order proces" style="ellipse;whiteSpace=wrap;html=1;" vertex="1" parent="1">
          <mxGeometry x="340" y="20" width="120" height="80" as="geometry" />
        </mxCell>
        <mxCell id="5_tIOBeRYEWyKFKPHUok-11" style="edgeStyle=orthogonalEdgeStyle;rounded=0;orthogonalLoop=1;jettySize=auto;html=1;exitX=0.5;exitY=1;exitDx=0;exitDy=0;entryX=0.5;entryY=0;entryDx=0;entryDy=0;" edge="1" parent="1" source="5_tIOBeRYEWyKFKPHUok-3" target="5_tIOBeRYEWyKFKPHUok-4">
          <mxGeometry relative="1" as="geometry" />
        </mxCell>
        <mxCell id="5_tIOBeRYEWyKFKPHUok-3" value="User click on product" style="rounded=1;whiteSpace=wrap;html=1;" vertex="1" parent="1">
          <mxGeometry x="330" y="160" width="140" height="60" as="geometry" />
        </mxCell>
        <mxCell id="5_tIOBeRYEWyKFKPHUok-12" style="edgeStyle=orthogonalEdgeStyle;rounded=0;orthogonalLoop=1;jettySize=auto;html=1;exitX=0.5;exitY=1;exitDx=0;exitDy=0;entryX=0.5;entryY=0;entryDx=0;entryDy=0;" edge="1" parent="1" source="5_tIOBeRYEWyKFKPHUok-4" target="5_tIOBeRYEWyKFKPHUok-6">
          <mxGeometry relative="1" as="geometry" />
        </mxCell>
        <mxCell id="5_tIOBeRYEWyKFKPHUok-4" value="User choose size and color" style="rounded=1;whiteSpace=wrap;html=1;" vertex="1" parent="1">
          <mxGeometry x="330" y="280" width="140" height="60" as="geometry" />
        </mxCell>
        <mxCell id="5_tIOBeRYEWyKFKPHUok-7" style="edgeStyle=orthogonalEdgeStyle;rounded=0;orthogonalLoop=1;jettySize=auto;html=1;exitX=0;exitY=0.5;exitDx=0;exitDy=0;entryX=1;entryY=0.5;entryDx=0;entryDy=0;" edge="1" parent="1" source="5_tIOBeRYEWyKFKPHUok-6" target="5_tIOBeRYEWyKFKPHUok-21">
          <mxGeometry relative="1" as="geometry">
            <mxPoint x="210" y="445" as="targetPoint" />
          </mxGeometry>
        </mxCell>
        <mxCell id="5_tIOBeRYEWyKFKPHUok-14" style="edgeStyle=orthogonalEdgeStyle;rounded=0;orthogonalLoop=1;jettySize=auto;html=1;exitX=1;exitY=0.5;exitDx=0;exitDy=0;" edge="1" parent="1" source="5_tIOBeRYEWyKFKPHUok-6" target="5_tIOBeRYEWyKFKPHUok-13">
          <mxGeometry relative="1" as="geometry">
            <Array as="points">
              <mxPoint x="400" y="445" />
            </Array>
          </mxGeometry>
        </mxCell>
        <mxCell id="5_tIOBeRYEWyKFKPHUok-6" value="Does user click&amp;nbsp;&lt;div&gt;on button buy&amp;nbsp;&lt;/div&gt;&lt;div&gt;now or add to cart&lt;/div&gt;" style="rhombus;whiteSpace=wrap;html=1;" vertex="1" parent="1">
          <mxGeometry x="310" y="390" width="180" height="110" as="geometry" />
        </mxCell>
        <mxCell id="5_tIOBeRYEWyKFKPHUok-8" value="add to cart" style="text;html=1;align=center;verticalAlign=middle;whiteSpace=wrap;rounded=0;" vertex="1" parent="1">
          <mxGeometry x="240" y="415" width="60" height="30" as="geometry" />
        </mxCell>
        <mxCell id="5_tIOBeRYEWyKFKPHUok-17" style="edgeStyle=orthogonalEdgeStyle;rounded=0;orthogonalLoop=1;jettySize=auto;html=1;exitX=0.5;exitY=1;exitDx=0;exitDy=0;entryX=0.5;entryY=0;entryDx=0;entryDy=0;" edge="1" parent="1" source="5_tIOBeRYEWyKFKPHUok-13" target="5_tIOBeRYEWyKFKPHUok-16">
          <mxGeometry relative="1" as="geometry" />
        </mxCell>
        <mxCell id="5_tIOBeRYEWyKFKPHUok-13" value="User enter their information&amp;nbsp;" style="rounded=1;whiteSpace=wrap;html=1;" vertex="1" parent="1">
          <mxGeometry x="340" y="570" width="120" height="60" as="geometry" />
        </mxCell>
        <mxCell id="5_tIOBeRYEWyKFKPHUok-15" value="buy now" style="text;html=1;align=center;verticalAlign=middle;whiteSpace=wrap;rounded=0;" vertex="1" parent="1">
          <mxGeometry x="410" y="515" width="60" height="30" as="geometry" />
        </mxCell>
        <mxCell id="5_tIOBeRYEWyKFKPHUok-16" value="Process to order" style="rounded=1;whiteSpace=wrap;html=1;" vertex="1" parent="1">
          <mxGeometry x="340" y="700" width="120" height="60" as="geometry" />
        </mxCell>
        <mxCell id="5_tIOBeRYEWyKFKPHUok-23" style="edgeStyle=orthogonalEdgeStyle;rounded=0;orthogonalLoop=1;jettySize=auto;html=1;exitX=0.5;exitY=0;exitDx=0;exitDy=0;entryX=0;entryY=0.5;entryDx=0;entryDy=0;" edge="1" parent="1" source="5_tIOBeRYEWyKFKPHUok-21" target="5_tIOBeRYEWyKFKPHUok-3">
          <mxGeometry relative="1" as="geometry" />
        </mxCell>
        <mxCell id="5_tIOBeRYEWyKFKPHUok-25" style="edgeStyle=orthogonalEdgeStyle;rounded=0;orthogonalLoop=1;jettySize=auto;html=1;exitX=0.5;exitY=1;exitDx=0;exitDy=0;entryX=0.5;entryY=0;entryDx=0;entryDy=0;" edge="1" parent="1" source="5_tIOBeRYEWyKFKPHUok-21" target="5_tIOBeRYEWyKFKPHUok-27">
          <mxGeometry relative="1" as="geometry">
            <mxPoint x="130.33333333333326" y="650" as="targetPoint" />
          </mxGeometry>
        </mxCell>
        <mxCell id="5_tIOBeRYEWyKFKPHUok-21" value="Does user return&amp;nbsp;&lt;div&gt;a home page&amp;nbsp;&lt;/div&gt;&lt;div&gt;or&amp;nbsp;&lt;/div&gt;&lt;div&gt;click on icon cart&lt;/div&gt;" style="rhombus;whiteSpace=wrap;html=1;" vertex="1" parent="1">
          <mxGeometry x="40" y="375" width="180" height="140" as="geometry" />
        </mxCell>
        <mxCell id="5_tIOBeRYEWyKFKPHUok-24" value="Return Home Page" style="text;html=1;align=center;verticalAlign=middle;whiteSpace=wrap;rounded=0;" vertex="1" parent="1">
          <mxGeometry x="190" y="160" width="90" height="30" as="geometry" />
        </mxCell>
        <mxCell id="5_tIOBeRYEWyKFKPHUok-26" value="Icon cart" style="text;html=1;align=center;verticalAlign=middle;whiteSpace=wrap;rounded=0;" vertex="1" parent="1">
          <mxGeometry x="70" y="555" width="60" height="30" as="geometry" />
        </mxCell>
        <mxCell id="5_tIOBeRYEWyKFKPHUok-29" style="edgeStyle=orthogonalEdgeStyle;rounded=0;orthogonalLoop=1;jettySize=auto;html=1;exitX=1;exitY=0.5;exitDx=0;exitDy=0;entryX=0;entryY=0.5;entryDx=0;entryDy=0;" edge="1" parent="1" source="5_tIOBeRYEWyKFKPHUok-27" target="5_tIOBeRYEWyKFKPHUok-13">
          <mxGeometry relative="1" as="geometry" />
        </mxCell>
        <mxCell id="5_tIOBeRYEWyKFKPHUok-27" value="Buy" style="rounded=1;whiteSpace=wrap;html=1;" vertex="1" parent="1">
          <mxGeometry x="70" y="610" width="120" height="60" as="geometry" />
        </mxCell>
      </root>
    </mxGraphModel>
  </diagram>
</mxfile>
